<svg width="23" height="23" viewBox="0 0 23 23" fill="none" xmlns="http://www.w3.org/2000/svg">
<path d="M12.578 1.07812V2.875H13.9939C14.4309 2.875 14.8607 2.99 15.2402 3.20706L17.0946 4.26506C17.1502 4.29669 17.2096 4.3125 17.2729 4.3125H20.4842C20.7702 4.3125 21.0444 4.42609 21.2466 4.62828C21.4488 4.83046 21.5624 5.10469 21.5624 5.39062C21.5624 5.67656 21.4488 5.95079 21.2466 6.15297C21.0444 6.35516 20.7702 6.46875 20.4842 6.46875H19.8704L22.905 13.2135C22.9947 13.413 23.0215 13.6351 22.982 13.8503C22.9424 14.0655 22.8384 14.2635 22.6836 14.4181L21.9217 13.6562L22.6822 14.4196L22.6807 14.4224L22.6779 14.4253L22.6692 14.4339L22.6606 14.4411L22.6462 14.4555L22.5816 14.513C22.2778 14.767 21.9491 14.9826 21.5954 15.1599C20.9241 15.4962 19.9524 15.8125 18.6874 15.8125C17.6804 15.8243 16.6846 15.6008 15.7793 15.1599C15.4264 14.9837 15.0954 14.7665 14.7932 14.513L14.7285 14.4555L14.7055 14.4339L14.6969 14.4253L14.6911 14.4196V14.4181C14.5364 14.2635 14.4323 14.0655 14.3928 13.8503C14.3532 13.6351 14.3801 13.413 14.4697 13.2135L17.5057 6.46875H17.2729C16.8344 6.46875 16.4046 6.35519 16.0251 6.13669L14.1707 5.07869C14.1165 5.04764 14.055 5.03129 13.9925 5.03125H12.578V18.6875H16.1717C16.4577 18.6875 16.7319 18.8011 16.9341 19.0033C17.1363 19.2055 17.2499 19.4797 17.2499 19.7656C17.2499 20.0516 17.1363 20.3258 16.9341 20.528C16.7319 20.7302 16.4577 20.8438 16.1717 20.8438H6.82799C6.54205 20.8438 6.26783 20.7302 6.06564 20.528C5.86345 20.3258 5.74987 20.0516 5.74987 19.7656C5.74987 19.4797 5.86345 19.2055 6.06564 19.0033C6.26783 18.8011 6.54205 18.6875 6.82799 18.6875H10.4217V5.03125H9.00724C8.94471 5.03129 8.88327 5.04764 8.82899 5.07869L6.97605 6.13812C6.59512 6.35375 6.1653 6.46875 5.72687 6.46875H5.49399L8.52999 13.2135C8.61966 13.413 8.64651 13.6351 8.60697 13.8503C8.56743 14.0655 8.46337 14.2635 8.30862 14.4181L7.54674 13.6562L8.30718 14.4196L8.30574 14.4224L8.30287 14.4253L8.29424 14.4339L8.27124 14.4555L8.20655 14.513C7.90276 14.767 7.57405 14.9826 7.22043 15.1599C6.54911 15.4962 5.57737 15.8125 4.31237 15.8125C3.30543 15.8243 2.30965 15.6008 1.4043 15.1599C1.05137 14.9837 0.72039 14.7665 0.418178 14.513L0.353491 14.4555L0.330491 14.4339L0.321866 14.4253L0.316116 14.4196V14.4181C0.161357 14.2635 0.0572977 14.0655 0.0177573 13.8503C-0.0217831 13.6351 0.00506668 13.413 0.0947407 13.2135L3.13074 6.46875H2.51549C2.22955 6.46875 1.95533 6.35516 1.75314 6.15297C1.55095 5.95079 1.43737 5.67656 1.43737 5.39062C1.43737 5.10469 1.55095 4.83046 1.75314 4.62828C1.95533 4.42609 2.22955 4.3125 2.51549 4.3125H5.72687C5.78988 4.31272 5.85185 4.29636 5.90655 4.26506L7.75805 3.20563C8.13899 2.99 8.5688 2.875 9.00724 2.875H10.4217V1.07812C10.4217 0.792188 10.5353 0.517963 10.7375 0.315775C10.9397 0.113588 11.2139 0 11.4999 0C11.7858 0 12.06 0.113588 12.2622 0.315775C12.4644 0.517963 12.578 0.792188 12.578 1.07812ZM16.8114 13.2638C17.2211 13.4579 17.8436 13.6562 18.6874 13.6562C19.5312 13.6562 20.1536 13.4579 20.5633 13.2638L18.6874 9.09506L16.8114 13.2638ZM2.43643 13.2638C2.84612 13.4579 3.46855 13.6562 4.31237 13.6562C5.15618 13.6562 5.77861 13.4579 6.1883 13.2638L4.31237 9.09506L2.43643 13.2638Z" fill="black"/>
</svg>
