<svg width="106" height="46" viewBox="0 0 106 46" fill="none" xmlns="http://www.w3.org/2000/svg">
<g clip-path="url(#clip0_2_359)">
<path d="M14.7039 27.0232V11.1429H25.5153V14.3992H18.7476V18.0105H24.898V21.1048H18.7476V27.031L14.7039 27.0232Z" fill="white"/>
<path d="M25.3303 23.5586C25.3303 21.3131 27.0589 20.063 30.1611 19.8701L32.9701 19.7081V19.0213C32.9701 18.0645 32.2833 17.5321 31.2646 17.5321C30.2074 17.5321 29.536 18.0799 29.428 18.8207H25.9168C26.0248 16.3669 28.1161 14.7464 31.4653 14.7464C34.6678 14.7464 36.79 16.39 36.79 18.7975V27.0233H32.9932V25.3179H32.9161C32.2678 26.5294 30.8016 27.2007 29.3586 27.2007C27.1361 27.2007 25.3303 25.7269 25.3303 23.5586ZM32.9701 22.7175V21.8918L30.7939 22.0308C29.7675 22.1079 29.1965 22.5786 29.1965 23.2885C29.1965 24.0447 29.8216 24.5077 30.7476 24.5077C31.9283 24.5154 32.9701 23.7824 32.9701 22.7175Z" fill="white"/>
<path d="M37.5383 24.9552L43.1717 18.0414V17.9642H37.6695V15.0397H47.7323V17.4163L42.6161 24.0216V24.0988H47.9254V27.0233H37.5383V24.9552Z" fill="white"/>
<path d="M60.0253 23.2345C59.6475 25.7115 57.448 27.3087 54.3148 27.3087C50.4951 27.3087 48.2185 24.963 48.2185 21.0893C48.2185 17.2157 50.5181 14.7464 54.1839 14.7464C57.7954 14.7464 60.095 17.1154 60.095 20.7807V21.8764H51.9998V22.1156C51.9998 23.5432 52.9569 24.5386 54.369 24.5386C55.4183 24.5386 56.2286 24.0447 56.5063 23.2268L60.0253 23.2345ZM52.0541 19.6618H56.4138C56.3446 18.3886 55.48 17.5244 54.2456 17.5244C53.0495 17.5244 52.1541 18.4194 52.0541 19.6618Z" fill="white"/>
<path d="M60.6968 15.0397H64.4935V17.2929H64.5707C65.1879 15.6956 66.4461 14.8082 68.2828 14.8082C70.9606 14.8082 72.4419 16.4826 72.4419 19.33V27.0233H68.5451V20.1634C68.5451 18.7976 67.8965 17.9873 66.6233 17.9873C65.381 17.9873 64.6095 18.921 64.6095 20.2482V27.031H60.6968V15.0397Z" fill="white"/>
<path d="M73.0054 21.0044C73.0054 17.1771 74.8345 14.8622 77.8284 14.8622C79.565 14.8622 80.8845 15.8113 81.4171 17.154H81.4943V11.1429H85.3911V27.0232H81.5172V24.963H81.44C80.9537 26.2362 79.565 27.193 77.7822 27.193C74.7957 27.2007 73.0054 24.8781 73.0054 21.0044ZM77.0027 21.0353C77.0027 22.9721 77.8364 24.1528 79.2485 24.1528C80.6531 24.1528 81.5097 22.9876 81.5097 21.0353C81.5097 19.1139 80.6531 17.9102 79.2485 17.9102C77.8439 17.9102 77.0027 19.1139 77.0027 21.0353Z" fill="white"/>
<path d="M85.939 23.5586C85.939 21.3131 87.6676 20.063 90.77 19.8701L93.5787 19.7081V19.0213C93.5787 18.0645 92.8919 17.5321 91.8735 17.5321C90.8163 17.5321 90.1448 18.0799 90.0368 18.8207H86.5253C86.6333 16.3669 88.7248 14.7464 92.0741 14.7464C95.2765 14.7464 97.3988 16.39 97.3988 18.7975V27.0233H93.6021V25.3179H93.525C92.8764 26.5294 91.4101 27.2007 89.9672 27.2007C87.7448 27.2007 85.939 25.7269 85.939 23.5586ZM93.5787 22.7175V21.8918L91.4026 22.0308C90.3763 22.1079 89.8054 22.5786 89.8054 23.2885C89.8054 24.0447 90.4301 24.5077 91.3563 24.5077C92.5444 24.5154 93.5787 23.7824 93.5787 22.7175Z" fill="white"/>
<path d="M22.8452 39.3695C22.5674 41.2369 20.9005 42.4407 18.5391 42.4407C15.6607 42.4407 13.9475 40.6736 13.9475 37.7491C13.9475 34.8322 15.6839 32.9726 18.4465 32.9726C21.1706 32.9726 22.9069 34.7551 22.9069 37.5175V38.3432H16.8105V38.5284C16.8105 39.6087 17.5282 40.3495 18.5931 40.3495C19.3803 40.3495 19.9976 39.9714 20.206 39.3618L22.8452 39.3695ZM16.8337 36.6688H20.1211C20.0748 35.7042 19.4188 35.056 18.4851 35.056C17.5822 35.0637 16.9108 35.7351 16.8337 36.6688Z" fill="white"/>
<path d="M28.9415 42.2246V32.7102H25.6387V30.2564H35.2771V32.7102H31.9743V42.2246H28.9415Z" fill="white"/>
<path d="M42.5159 39.3695C42.238 41.2369 40.5711 42.4407 38.2098 42.4407C35.3313 42.4407 33.6182 40.6736 33.6182 37.7491C33.6182 34.8322 35.3545 32.9726 38.1172 32.9726C40.8413 32.9726 42.5776 34.7551 42.5776 37.5175V38.3432H36.4735V38.5284C36.4735 39.6087 37.1911 40.3495 38.2561 40.3495C39.0432 40.3495 39.6606 39.9714 39.8689 39.3618L42.5159 39.3695ZM36.5121 36.6688H39.7995C39.7532 35.7042 39.0972 35.056 38.1635 35.056C37.2529 35.0637 36.5815 35.7351 36.5121 36.6688Z" fill="white"/>
<path d="M48.8899 36.7536C48.7894 35.8122 48.226 35.2103 47.3698 35.2103C46.3356 35.2103 45.7259 36.1055 45.7259 37.7027C45.7259 39.3155 46.3356 40.2106 47.3698 40.2106C48.2339 40.2106 48.7894 39.655 48.8974 38.7136H51.5986C51.5289 41.0131 49.8854 42.4407 47.3465 42.4407C44.5143 42.4407 42.7549 40.6659 42.7549 37.7027C42.7549 34.7705 44.5143 32.9726 47.3231 32.9726C49.87 32.9726 51.5215 34.4927 51.5986 36.7536H48.8899Z" fill="white"/>
<path d="M51.9919 33.1886H54.8548V34.8862H54.917C55.3799 33.6825 56.3291 33.0112 57.7103 33.0112C59.7247 33.0112 60.8436 34.2767 60.8436 36.4219V42.2168H57.9034V37.0469C57.9034 36.0206 57.4172 35.4033 56.4525 35.4033C55.5188 35.4033 54.9325 36.1055 54.9325 37.1009V42.2091H51.9844L51.9919 33.1886Z" fill="white"/>
<path d="M61.2756 37.7027C61.2756 34.7474 63.0889 32.9726 65.8981 32.9726C68.7148 32.9726 70.5206 34.7397 70.5206 37.7027C70.5206 40.7199 68.7457 42.4407 65.8981 42.4407C63.0506 42.4407 61.2756 40.7199 61.2756 37.7027ZM67.5342 37.7105C67.5342 36.0823 66.8936 35.1332 65.8902 35.1332C64.8947 35.1332 64.2541 36.09 64.2541 37.7105C64.2541 39.3618 64.8718 40.28 65.8902 40.28C66.9011 40.28 67.5342 39.3618 67.5342 37.7105Z" fill="white"/>
<path d="M71.0225 30.2564H73.9701V42.2246H71.0225V30.2564Z" fill="white"/>
<path d="M74.4792 37.7027C74.4792 34.7474 76.293 32.9726 79.1017 32.9726C81.9184 32.9726 83.7242 34.7397 83.7242 37.7027C83.7242 40.7199 81.9493 42.4407 79.1017 42.4407C76.2542 42.4407 74.4792 40.7199 74.4792 37.7027ZM80.7378 37.7105C80.7378 36.0823 80.0972 35.1332 79.0942 35.1332C78.0988 35.1332 77.4582 36.09 77.4582 37.7105C77.4582 39.3618 78.0754 40.28 79.0942 40.28C80.0972 40.28 80.7378 39.3618 80.7378 37.7105Z" fill="white"/>
<path d="M84.1411 42.811H86.9886C87.1275 43.3357 87.7447 43.6984 88.5779 43.6984C89.7048 43.6984 90.2911 43.0888 90.2911 42.1937V40.5347H90.2294C89.8745 41.4915 88.8094 42.1474 87.4824 42.1474C85.3217 42.1474 83.8862 40.5038 83.8862 37.6719C83.8862 34.786 85.26 33.0498 87.5207 33.0498C88.8327 33.0498 89.8362 33.7674 90.2448 34.786H90.3065V33.1809H93.2238V42.1166C93.2238 44.2771 91.3175 45.6198 88.5008 45.6198C85.9464 45.6275 84.3108 44.4546 84.1411 42.811ZM90.3065 37.7027C90.3065 36.2598 89.6505 35.357 88.6088 35.357C87.5516 35.357 86.9189 36.2521 86.9189 37.7027C86.9189 39.1612 87.5516 39.9791 88.6088 39.9791C89.666 39.9791 90.3065 39.1612 90.3065 37.7027Z" fill="white"/>
<path d="M93.957 31.0126C93.957 30.1947 94.613 29.5774 95.4697 29.5774C96.3258 29.5774 96.9743 30.1947 96.9743 31.0126C96.9743 31.8228 96.3258 32.4556 95.4697 32.4556C94.613 32.4556 93.957 31.8306 93.957 31.0126ZM94.0033 33.1887H96.9435V42.2246H94.0033V33.1887Z" fill="white"/>
<path d="M97.3528 39.6087C97.3528 37.9188 98.6569 36.9697 100.995 36.8308L103.11 36.7073V36.1903C103.11 35.4727 102.592 35.0714 101.82 35.0714C101.026 35.0714 100.516 35.4882 100.432 36.0437H97.7848C97.8695 34.1918 99.4438 32.9726 101.967 32.9726C104.383 32.9726 105.98 34.2072 105.98 36.0206V42.2168H103.117V40.9282H103.055C102.569 41.8387 101.466 42.348 100.378 42.348C98.7186 42.3558 97.3528 41.2446 97.3528 39.6087ZM103.11 38.9837V38.3664L101.466 38.4744C100.694 38.5361 100.262 38.8911 100.262 39.4235C100.262 39.9946 100.732 40.3418 101.427 40.3418C102.33 40.334 103.11 39.7862 103.11 38.9837Z" fill="white"/>
<path d="M14.0557 7.00687V6.93744H15.2672V6.98372C15.329 7.57017 15.954 7.95599 16.8415 7.95599C17.6903 7.95599 18.2768 7.53931 18.2768 6.93744V6.92972C18.2768 6.42043 17.9141 6.11951 17.0113 5.9266L16.255 5.77227C14.8196 5.47131 14.2023 4.79999 14.2023 3.75827C14.2023 2.50821 15.2827 1.66713 16.7952 1.66713C18.3463 1.66713 19.3109 2.51593 19.4035 3.64253V3.70426H18.2074L18.1997 3.64253C18.1148 3.09466 17.59 2.70884 16.7952 2.71656C16.0158 2.71656 15.4678 3.07923 15.4678 3.67339C15.4678 4.16724 15.8228 4.4759 16.6949 4.66881L17.4511 4.83085C18.9251 5.13949 19.5424 5.73369 19.5424 6.79081C19.5424 8.15661 18.4852 9.00544 16.8106 9.00544C15.1746 9.01315 14.1405 8.21066 14.0557 7.00687Z" fill="white"/>
<path d="M20.5535 6.19666C20.5535 4.52218 21.5181 3.42645 23.0306 3.42645C24.5354 3.42645 25.4692 4.4836 25.4692 6.08861V6.48986H21.765C21.7804 7.43897 22.2975 7.99456 23.1155 7.99456C23.7714 7.99456 24.1419 7.66274 24.2576 7.42354L24.2731 7.39269H25.4229L25.4074 7.43126C25.2377 8.11804 24.5277 8.94368 23.0846 8.94368C21.5027 8.94368 20.5535 7.88655 20.5535 6.19666ZM21.7727 5.67965H24.2885C24.2036 4.8154 23.7174 4.37557 23.0383 4.37557C22.3669 4.37557 21.8654 4.83083 21.7727 5.67965Z" fill="white"/>
<path d="M26.4104 6.18123V6.17351C26.4104 4.46046 27.3442 3.43417 28.9415 3.43417C30.3075 3.43417 31.1177 4.19038 31.2567 5.28611V5.30154H30.1146V5.28611C30.0065 4.76911 29.6052 4.39872 28.9493 4.39872C28.1236 4.39872 27.6374 5.04691 27.6374 6.15808V6.1658C27.6374 7.29239 28.1236 7.94827 28.9493 7.94827C29.5744 7.94827 29.9602 7.66278 30.1068 7.1072L30.1146 7.08406H31.2567L31.2489 7.12263C31.0792 8.21065 30.292 8.93596 28.9493 8.93596C27.3519 8.94367 26.4104 7.9097 26.4104 6.18123Z" fill="white"/>
<path d="M32.4065 3.53448H33.6103V4.35242H33.6952C33.8727 3.78141 34.3589 3.4496 35.0611 3.4496C35.2463 3.4496 35.4393 3.47275 35.5473 3.51134V4.59163C35.3543 4.55305 35.1537 4.52218 34.9454 4.52218C34.1428 4.52218 33.6103 5.0006 33.6103 5.75679V8.83568H32.4065V3.53448Z" fill="white"/>
<path d="M36.1416 6.19666C36.1416 4.52218 37.1062 3.42645 38.6187 3.42645C40.1235 3.42645 41.0573 4.4836 41.0573 6.08861V6.48986H37.3532C37.3686 7.43897 37.8856 7.99456 38.7037 7.99456C39.3596 7.99456 39.73 7.66274 39.8458 7.42354L39.8612 7.39269H41.011L40.9956 7.43126C40.8258 8.11804 40.1158 8.94368 38.6728 8.94368C37.1062 8.94368 36.1416 7.88655 36.1416 6.19666ZM37.3686 5.67965H39.8843C39.7995 4.8154 39.3133 4.37557 38.6342 4.37557C37.9628 4.37557 37.4535 4.83083 37.3686 5.67965Z" fill="white"/>
<path d="M42.639 7.43126V4.46816H41.8132V3.53448H42.639V2.2304H43.8659V3.53448H44.9849V4.46816H43.8659V7.14577C43.8659 7.67821 44.0743 7.90198 44.5836 7.90198C44.7534 7.90198 44.846 7.90198 44.9926 7.87884V8.80477C44.8228 8.83567 44.5913 8.85881 44.3599 8.85881C43.1405 8.86653 42.639 8.45757 42.639 7.43126Z" fill="white"/>
<path d="M45.8958 7.33868V7.33097C45.8958 6.38185 46.6134 5.83398 47.9099 5.75679L49.2757 5.67193V5.21668C49.2757 4.68423 48.9363 4.391 48.2803 4.391C47.7323 4.391 47.3699 4.59164 47.2464 4.93887V4.96202H46.0964V4.91572C46.2122 4.02062 47.0688 3.43417 48.3266 3.43417C49.6924 3.43417 50.4564 4.09007 50.4564 5.21668V8.84338H49.2603V8.11803H49.1757C48.882 8.63505 48.3191 8.93596 47.6243 8.93596C46.6289 8.92824 45.8958 8.30323 45.8958 7.33868ZM48.01 8.00227C48.7357 8.00227 49.2757 7.52388 49.2757 6.89886V6.47442L48.0797 6.55161C47.4007 6.5979 47.0917 6.84481 47.0917 7.27697V7.28468C47.0842 7.73221 47.4699 8.00227 48.01 8.00227Z" fill="white"/>
<path d="M51.9148 3.53448H53.1188V4.35242H53.2039C53.3811 3.78141 53.8674 3.4496 54.5697 3.4496C54.7549 3.4496 54.948 3.47275 55.056 3.51134V4.59163C54.8629 4.55305 54.6623 4.52218 54.4537 4.52218C53.6514 4.52218 53.1188 5.0006 53.1188 5.75679V8.83568H51.9148V3.53448Z" fill="white"/>
<path d="M55.9353 1.93719C55.9353 1.54365 56.2593 1.21956 56.653 1.21956C57.0467 1.21956 57.3708 1.53594 57.3708 1.93719C57.3708 2.33844 57.0467 2.65482 56.653 2.65482C56.2673 2.6471 55.9353 2.33073 55.9353 1.93719ZM56.0587 3.53449H57.2628V8.83567H56.0587V3.53449Z" fill="white"/>
<path d="M58.4512 7.33868V7.33097C58.4512 6.38185 59.1689 5.83398 60.4655 5.75679L61.8313 5.67193V5.21668C61.8313 4.68423 61.4918 4.391 60.8358 4.391C60.2878 4.391 59.9254 4.59164 59.802 4.93887V4.96202H58.6597V4.91572C58.7757 4.02062 59.6323 3.43417 60.8901 3.43417C62.2559 3.43417 63.0199 4.09007 63.0199 5.21668V8.84338H61.8238V8.11803H61.7387C61.4455 8.63505 60.8821 8.93596 60.1878 8.93596C59.1843 8.92824 58.4512 8.30323 58.4512 7.33868ZM60.566 8.00227C61.2912 8.00227 61.8313 7.52388 61.8313 6.89886V6.47442L60.6352 6.55161C59.9563 6.5979 59.6477 6.84481 59.6477 7.27697V7.28468C59.6477 7.73221 60.0335 8.00227 60.566 8.00227Z" fill="white"/>
<path d="M66.8547 6.19665V6.18122C66.8547 4.49131 67.6805 3.44187 69.0313 3.44187C69.7565 3.44187 70.3662 3.80454 70.644 4.37556H70.7286V1.4819H71.9406V8.83567H70.7286V8.00998H70.644C70.3508 8.58871 69.7794 8.92824 69.0313 8.92824C67.6959 8.92824 66.8547 7.87112 66.8547 6.19665ZM70.7366 6.19665V6.18122C70.7366 5.11634 70.2194 4.46816 69.4016 4.46816C68.5759 4.46816 68.0742 5.11634 68.0742 6.18122V6.18894C68.0742 7.25377 68.5759 7.90198 69.4016 7.90198C70.2274 7.90969 70.7366 7.25377 70.7366 6.19665Z" fill="white"/>
<path d="M73.1904 6.19666C73.1904 4.52218 74.155 3.42645 75.6677 3.42645C77.1723 3.42645 78.1061 4.4836 78.1061 6.08861V6.48986H74.4019C74.4174 7.43897 74.9345 7.99456 75.7528 7.99456C76.4083 7.99456 76.7791 7.66274 76.8946 7.42354L76.91 7.39269H78.0598L78.0444 7.43126C77.8746 8.11804 77.1648 8.94368 75.7219 8.94368C74.1476 8.94368 73.1904 7.88655 73.1904 6.19666ZM74.4099 5.67965H76.9254C76.8408 4.8154 76.3545 4.37557 75.6756 4.37557C75.0042 4.37557 74.5025 4.83083 74.4099 5.67965Z" fill="white"/>
</g>
<defs>
<clipPath id="clip0_2_359">
<rect width="106" height="45.2584" fill="white" transform="translate(0 0.370758)"/>
</clipPath>
</defs>
</svg>
