<svg width="459" height="171" viewBox="0 0 459 171" fill="none" xmlns="http://www.w3.org/2000/svg">
<path d="M22.4615 43.2458V75.87H38.694C45.378 75.87 50.3645 74.4377 53.6534 71.5732C57.0485 68.6025 58.746 64.5709 58.746 59.4783C58.746 54.3858 57.0485 50.4072 53.6534 47.5426C50.3645 44.6781 45.378 43.2458 38.694 43.2458H22.4615ZM3.36433 25.7401H39.4897C45.5372 25.7401 50.948 26.5888 55.7223 28.2864C60.6027 29.8778 64.7404 32.2119 68.1354 35.2886C71.5305 38.2593 74.1298 41.8135 75.9334 45.9512C77.737 49.9828 78.6389 54.4919 78.6389 59.4783C78.6389 64.5709 77.684 69.2391 75.7743 73.4829C73.9707 77.6206 71.3183 81.1748 67.8171 84.1455C64.4221 87.01 60.3374 89.2911 55.5632 90.9886C50.7889 92.58 45.4311 93.3757 39.4897 93.3757H22.4615V126H3.36433V25.7401ZM102.499 67.1172H144.672V84.6229H102.499V108.494H151.038V126H83.4019V25.7401H149.446V43.2458H102.499V67.1172ZM174.921 43.2458V71.8915H191.154C197.838 71.8915 202.824 70.6183 206.113 68.072C209.508 65.5258 211.206 62.0246 211.206 57.5686C211.206 53.1126 209.508 49.6115 206.113 47.0652C202.824 44.5189 197.838 43.2458 191.154 43.2458H174.921ZM207.705 87.1692L230.144 126H207.864L186.698 89.3972H174.921V126H155.824V25.7401H191.95C197.997 25.7401 203.408 26.5358 208.182 28.1272C213.063 29.7186 217.2 31.9466 220.595 34.8112C223.99 37.5697 226.59 40.9117 228.393 44.8372C230.197 48.6566 231.099 52.9004 231.099 57.5686C231.099 64.8892 229.03 71.0957 224.892 76.1883C220.755 81.2809 215.025 84.9412 207.705 87.1692ZM254.959 43.2458V108.494H268.964C279.149 108.494 286.788 105.577 291.88 99.7414C297.079 93.8001 299.678 85.7899 299.678 75.7109C299.678 65.6318 297.079 57.7278 291.88 51.9986C286.788 46.1634 279.149 43.2458 268.964 43.2458H254.959ZM235.862 25.7401H268.964C276.815 25.7401 283.817 27.0132 289.97 29.5595C296.23 31.9997 301.535 35.4478 305.885 39.9038C310.341 44.2537 313.736 49.5054 316.07 55.6589C318.404 61.8124 319.571 68.5495 319.571 75.87C319.571 83.1906 318.404 89.9276 316.07 96.0812C313.736 102.235 310.341 107.539 305.885 111.995C301.535 116.345 296.23 119.793 289.97 122.34C283.817 124.78 276.815 126 268.964 126H235.862V25.7401Z" fill="#242424"/>
<path d="M1.82386 150V136.182H7.00568C8.06724 136.182 8.95786 136.38 9.67756 136.776C10.4018 137.171 10.9483 137.716 11.3171 138.408C11.6905 139.097 11.8771 139.879 11.8771 140.756C11.8771 141.643 11.6905 142.43 11.3171 143.118C10.9438 143.806 10.3928 144.348 9.66406 144.744C8.93537 145.135 8.038 145.331 6.97195 145.331H3.53764V143.273H6.63459C7.25533 143.273 7.76361 143.165 8.15945 142.949C8.55528 142.733 8.84766 142.436 9.03658 142.059C9.23 141.681 9.32671 141.247 9.32671 140.756C9.32671 140.266 9.23 139.834 9.03658 139.461C8.84766 139.088 8.55303 138.797 8.1527 138.591C7.75687 138.379 7.24633 138.273 6.62109 138.273H4.32706V150H1.82386ZM13.9434 150V139.636H16.3117V141.364H16.4197C16.6086 140.765 16.9324 140.304 17.3912 139.98C17.8546 139.652 18.3831 139.488 18.9768 139.488C19.1118 139.488 19.2625 139.495 19.4289 139.508C19.5998 139.517 19.7415 139.533 19.854 139.555V141.802C19.7505 141.766 19.5863 141.735 19.3614 141.708C19.141 141.676 18.9273 141.661 18.7204 141.661C18.2751 141.661 17.8748 141.757 17.5194 141.951C17.1686 142.14 16.892 142.403 16.6895 142.74C16.4871 143.077 16.3859 143.467 16.3859 143.907V150H13.9434ZM25.5705 150.202C24.5584 150.202 23.6813 149.98 22.9391 149.534C22.1969 149.089 21.6212 148.466 21.2118 147.665C20.807 146.865 20.6046 145.929 20.6046 144.859C20.6046 143.788 20.807 142.85 21.2118 142.045C21.6212 141.24 22.1969 140.615 22.9391 140.169C23.6813 139.724 24.5584 139.501 25.5705 139.501C26.5826 139.501 27.4597 139.724 28.2019 140.169C28.9441 140.615 29.5176 141.24 29.9224 142.045C30.3317 142.85 30.5364 143.788 30.5364 144.859C30.5364 145.929 30.3317 146.865 29.9224 147.665C29.5176 148.466 28.9441 149.089 28.2019 149.534C27.4597 149.98 26.5826 150.202 25.5705 150.202ZM25.584 148.246C26.1328 148.246 26.5916 148.095 26.9604 147.794C27.3292 147.488 27.6036 147.078 27.7836 146.566C27.968 146.053 28.0602 145.482 28.0602 144.852C28.0602 144.218 27.968 143.644 27.7836 143.131C27.6036 142.614 27.3292 142.203 26.9604 141.897C26.5916 141.591 26.1328 141.438 25.584 141.438C25.0217 141.438 24.5539 141.591 24.1806 141.897C23.8117 142.203 23.5351 142.614 23.3507 143.131C23.1708 143.644 23.0808 144.218 23.0808 144.852C23.0808 145.482 23.1708 146.053 23.3507 146.566C23.5351 147.078 23.8117 147.488 24.1806 147.794C24.5539 148.095 25.0217 148.246 25.584 148.246ZM37.1166 154.102C36.2394 154.102 35.486 153.983 34.8563 153.745C34.2265 153.511 33.7205 153.196 33.3382 152.8C32.9558 152.404 32.6904 151.966 32.542 151.484L34.7416 150.951C34.8405 151.154 34.9845 151.354 35.1734 151.552C35.3623 151.754 35.6164 151.921 35.9358 152.051C36.2597 152.186 36.6668 152.254 37.157 152.254C37.8498 152.254 38.4233 152.085 38.8776 151.748C39.3319 151.415 39.559 150.866 39.559 150.101V148.138H39.4376C39.3116 148.39 39.1272 148.648 38.8843 148.914C38.6459 149.179 38.3288 149.402 37.933 149.582C37.5416 149.762 37.0491 149.852 36.4553 149.852C35.6592 149.852 34.9372 149.665 34.2895 149.292C33.6463 148.914 33.1335 148.351 32.7512 147.605C32.3733 146.854 32.1844 145.913 32.1844 144.784C32.1844 143.646 32.3733 142.686 32.7512 141.903C33.1335 141.116 33.6485 140.52 34.2963 140.115C34.944 139.706 35.6659 139.501 36.4621 139.501C37.0693 139.501 37.5686 139.605 37.96 139.812C38.3558 140.014 38.6707 140.259 38.9046 140.547C39.1385 140.831 39.3161 141.098 39.4376 141.35H39.5725V139.636H41.9813V150.169C41.9813 151.055 41.7699 151.788 41.347 152.368C40.9242 152.949 40.3462 153.383 39.613 153.67C38.8798 153.958 38.0477 154.102 37.1166 154.102ZM37.1368 147.935C37.6541 147.935 38.0949 147.809 38.4593 147.558C38.8236 147.306 39.1002 146.944 39.2892 146.471C39.4781 145.999 39.5725 145.432 39.5725 144.771C39.5725 144.119 39.4781 143.547 39.2892 143.057C39.1047 142.567 38.8303 142.187 38.466 141.917C38.1061 141.643 37.6631 141.505 37.1368 141.505C36.5925 141.505 36.1382 141.647 35.7739 141.93C35.4095 142.214 35.1352 142.603 34.9507 143.098C34.7663 143.588 34.6741 144.146 34.6741 144.771C34.6741 145.405 34.7663 145.961 34.9507 146.438C35.1396 146.91 35.4163 147.279 35.7806 147.544C36.1495 147.805 36.6015 147.935 37.1368 147.935ZM44.4845 150V139.636H46.8527V141.364H46.9607C47.1496 140.765 47.4735 140.304 47.9323 139.98C48.3956 139.652 48.9241 139.488 49.5178 139.488C49.6528 139.488 49.8035 139.495 49.9699 139.508C50.1408 139.517 50.2825 139.533 50.395 139.555V141.802C50.2915 141.766 50.1273 141.735 49.9024 141.708C49.682 141.676 49.4684 141.661 49.2615 141.661C48.8161 141.661 48.4158 141.757 48.0605 141.951C47.7096 142.14 47.433 142.403 47.2306 142.74C47.0281 143.077 46.9269 143.467 46.9269 143.907V150H44.4845ZM54.8144 150.209C54.1576 150.209 53.5661 150.092 53.0399 149.858C52.5181 149.62 52.1043 149.269 51.7984 148.806C51.497 148.342 51.3463 147.771 51.3463 147.092C51.3463 146.507 51.4543 146.024 51.6702 145.641C51.8861 145.259 52.1807 144.953 52.5541 144.724C52.9274 144.494 53.348 144.321 53.8158 144.204C54.2881 144.083 54.7761 143.995 55.2799 143.941C55.8872 143.878 56.3797 143.822 56.7575 143.772C57.1354 143.718 57.4098 143.637 57.5807 143.529C57.7561 143.417 57.8438 143.244 57.8438 143.01V142.969C57.8438 142.461 57.6932 142.068 57.3918 141.789C57.0904 141.51 56.6563 141.37 56.0896 141.37C55.4913 141.37 55.0168 141.501 54.6659 141.762C54.3196 142.023 54.0857 142.331 53.9642 142.686L51.6837 142.362C51.8636 141.732 52.1605 141.206 52.5743 140.783C52.9881 140.356 53.4942 140.037 54.0924 139.825C54.6907 139.609 55.3519 139.501 56.0761 139.501C56.5754 139.501 57.0724 139.56 57.5672 139.677C58.062 139.794 58.5141 139.987 58.9234 140.257C59.3327 140.522 59.6611 140.885 59.9085 141.343C60.1604 141.802 60.2863 142.376 60.2863 143.064V150H57.9383V148.576H57.8573C57.7089 148.864 57.4997 149.134 57.2298 149.386C56.9645 149.633 56.6294 149.834 56.2245 149.987C55.8242 150.135 55.3541 150.209 54.8144 150.209ZM55.4486 148.414C55.9389 148.414 56.364 148.318 56.7238 148.124C57.0837 147.926 57.3603 147.665 57.5537 147.342C57.7516 147.018 57.8506 146.665 57.8506 146.282V145.061C57.7741 145.124 57.6437 145.183 57.4593 145.237C57.2793 145.29 57.0769 145.338 56.852 145.378C56.6271 145.419 56.4044 145.455 56.184 145.486C55.9636 145.518 55.7725 145.545 55.6105 145.567C55.2462 145.617 54.9201 145.698 54.6322 145.81C54.3443 145.922 54.1172 146.08 53.9507 146.282C53.7843 146.48 53.7011 146.737 53.7011 147.051C53.7011 147.501 53.8653 147.841 54.1936 148.07C54.522 148.3 54.9403 148.414 55.4486 148.414ZM62.7423 150V139.636H65.0768V141.397H65.1982C65.4142 140.804 65.7718 140.34 66.271 140.007C66.7703 139.67 67.3663 139.501 68.059 139.501C68.7607 139.501 69.3522 139.672 69.8335 140.014C70.3193 140.352 70.6612 140.813 70.8591 141.397H70.9671C71.1965 140.822 71.5833 140.363 72.1276 140.021C72.6763 139.675 73.3263 139.501 74.0775 139.501C75.0311 139.501 75.8093 139.803 76.412 140.406C77.0148 141.008 77.3161 141.888 77.3161 143.044V150H74.8669V143.422C74.8669 142.778 74.696 142.308 74.3541 142.011C74.0123 141.71 73.594 141.559 73.0992 141.559C72.5099 141.559 72.0489 141.744 71.716 142.113C71.3876 142.477 71.2235 142.951 71.2235 143.536V150H68.8282V143.32C68.8282 142.785 68.6663 142.358 68.3424 142.038C68.0231 141.719 67.6047 141.559 67.0874 141.559C66.7366 141.559 66.4172 141.649 66.1294 141.829C65.8415 142.005 65.6121 142.254 65.4411 142.578C65.2702 142.897 65.1847 143.271 65.1847 143.698V150H62.7423ZM82.7763 150.209C82.1196 150.209 81.5281 150.092 81.0018 149.858C80.48 149.62 80.0662 149.269 79.7603 148.806C79.4589 148.342 79.3082 147.771 79.3082 147.092C79.3082 146.507 79.4162 146.024 79.6321 145.641C79.848 145.259 80.1426 144.953 80.516 144.724C80.8893 144.494 81.3099 144.321 81.7777 144.204C82.25 144.083 82.738 143.995 83.2418 143.941C83.8491 143.878 84.3416 143.822 84.7195 143.772C85.0973 143.718 85.3717 143.637 85.5426 143.529C85.718 143.417 85.8058 143.244 85.8058 143.01V142.969C85.8058 142.461 85.6551 142.068 85.3537 141.789C85.0523 141.51 84.6183 141.37 84.0515 141.37C83.4532 141.37 82.9787 141.501 82.6278 141.762C82.2815 142.023 82.0476 142.331 81.9261 142.686L79.6456 142.362C79.8255 141.732 80.1224 141.206 80.5362 140.783C80.95 140.356 81.4561 140.037 82.0543 139.825C82.6526 139.609 83.3138 139.501 84.038 139.501C84.5373 139.501 85.0343 139.56 85.5291 139.677C86.0239 139.794 86.476 139.987 86.8853 140.257C87.2946 140.522 87.623 140.885 87.8704 141.343C88.1223 141.802 88.2482 142.376 88.2482 143.064V150H85.9002V148.576H85.8192C85.6708 148.864 85.4616 149.134 85.1918 149.386C84.9264 149.633 84.5913 149.834 84.1864 149.987C83.7861 150.135 83.3161 150.209 82.7763 150.209ZM83.4105 148.414C83.9008 148.414 84.3259 148.318 84.6857 148.124C85.0456 147.926 85.3222 147.665 85.5156 147.342C85.7135 147.018 85.8125 146.665 85.8125 146.282V145.061C85.736 145.124 85.6056 145.183 85.4212 145.237C85.2412 145.29 85.0388 145.338 84.8139 145.378C84.589 145.419 84.3664 145.455 84.146 145.486C83.9255 145.518 83.7344 145.545 83.5724 145.567C83.2081 145.617 82.882 145.698 82.5941 145.81C82.3062 145.922 82.0791 146.08 81.9126 146.282C81.7462 146.48 81.663 146.737 81.663 147.051C81.663 147.501 81.8272 147.841 82.1555 148.07C82.4839 148.3 82.9022 148.414 83.4105 148.414ZM98.8952 142.376L96.6687 142.619C96.6057 142.394 96.4955 142.182 96.3381 141.984C96.1851 141.786 95.9782 141.627 95.7173 141.505C95.4564 141.384 95.1371 141.323 94.7592 141.323C94.2509 141.323 93.8236 141.433 93.4773 141.654C93.1354 141.874 92.9667 142.16 92.9712 142.511C92.9667 142.812 93.0769 143.057 93.3018 143.246C93.5313 143.435 93.9091 143.59 94.4354 143.712L96.2031 144.089C97.1837 144.301 97.9124 144.636 98.3892 145.095C98.8705 145.554 99.1134 146.154 99.1179 146.896C99.1134 147.549 98.9222 148.124 98.5444 148.624C98.171 149.118 97.6515 149.505 96.9858 149.784C96.3201 150.063 95.5554 150.202 94.6918 150.202C93.4233 150.202 92.4022 149.937 91.6286 149.406C90.8549 148.871 90.3938 148.127 90.2454 147.173L92.6271 146.944C92.7351 147.411 92.9645 147.764 93.3153 148.003C93.6662 148.241 94.1228 148.36 94.685 148.36C95.2653 148.36 95.7308 148.241 96.0817 148.003C96.437 147.764 96.6147 147.47 96.6147 147.119C96.6147 146.822 96.5 146.577 96.2706 146.384C96.0457 146.19 95.6948 146.042 95.218 145.938L93.4503 145.567C92.4562 145.36 91.7208 145.012 91.244 144.521C90.7672 144.027 90.531 143.401 90.5355 142.646C90.531 142.007 90.7042 141.454 91.055 140.986C91.4104 140.513 91.9029 140.149 92.5327 139.893C93.1669 139.632 93.8978 139.501 94.7255 139.501C95.94 139.501 96.8958 139.76 97.593 140.277C98.2947 140.795 98.7288 141.494 98.8952 142.376ZM105.953 150V136.182H114.94V138.28H108.456V142.032H114.474V144.13H108.456V147.902H114.994V150H105.953ZM125.577 142.376L123.35 142.619C123.287 142.394 123.177 142.182 123.02 141.984C122.867 141.786 122.66 141.627 122.399 141.505C122.138 141.384 121.819 141.323 121.441 141.323C120.933 141.323 120.505 141.433 120.159 141.654C119.817 141.874 119.648 142.16 119.653 142.511C119.648 142.812 119.759 143.057 119.983 143.246C120.213 143.435 120.591 143.59 121.117 143.712L122.885 144.089C123.865 144.301 124.594 144.636 125.071 145.095C125.552 145.554 125.795 146.154 125.8 146.896C125.795 147.549 125.604 148.124 125.226 148.624C124.853 149.118 124.333 149.505 123.667 149.784C123.002 150.063 122.237 150.202 121.373 150.202C120.105 150.202 119.084 149.937 118.31 149.406C117.537 148.871 117.075 148.127 116.927 147.173L119.309 146.944C119.417 147.411 119.646 147.764 119.997 148.003C120.348 148.241 120.804 148.36 121.367 148.36C121.947 148.36 122.412 148.241 122.763 148.003C123.119 147.764 123.296 147.47 123.296 147.119C123.296 146.822 123.182 146.577 122.952 146.384C122.727 146.19 122.376 146.042 121.9 145.938L120.132 145.567C119.138 145.36 118.402 145.012 117.926 144.521C117.449 144.027 117.213 143.401 117.217 142.646C117.213 142.007 117.386 141.454 117.737 140.986C118.092 140.513 118.585 140.149 119.214 139.893C119.849 139.632 120.579 139.501 121.407 139.501C122.622 139.501 123.577 139.76 124.275 140.277C124.976 140.795 125.41 141.494 125.577 142.376ZM127.814 153.886V139.636H130.216V141.35H130.357C130.483 141.098 130.661 140.831 130.89 140.547C131.12 140.259 131.43 140.014 131.821 139.812C132.213 139.605 132.712 139.501 133.319 139.501C134.12 139.501 134.842 139.706 135.485 140.115C136.133 140.52 136.646 141.121 137.023 141.917C137.406 142.709 137.597 143.68 137.597 144.832C137.597 145.97 137.41 146.937 137.037 147.733C136.664 148.529 136.155 149.136 135.512 149.555C134.869 149.973 134.14 150.182 133.326 150.182C132.732 150.182 132.24 150.083 131.848 149.885C131.457 149.687 131.142 149.449 130.904 149.17C130.67 148.887 130.488 148.619 130.357 148.367H130.256V153.886H127.814ZM130.209 144.818C130.209 145.488 130.303 146.075 130.492 146.579C130.686 147.083 130.962 147.477 131.322 147.76C131.686 148.039 132.127 148.178 132.645 148.178C133.184 148.178 133.636 148.034 134.001 147.746C134.365 147.454 134.639 147.056 134.824 146.552C135.013 146.044 135.107 145.466 135.107 144.818C135.107 144.175 135.015 143.604 134.831 143.104C134.646 142.605 134.372 142.214 134.007 141.93C133.643 141.647 133.189 141.505 132.645 141.505C132.123 141.505 131.68 141.643 131.315 141.917C130.951 142.191 130.674 142.576 130.485 143.071C130.301 143.565 130.209 144.148 130.209 144.818ZM144.277 150.202C143.238 150.202 142.34 149.987 141.585 149.555C140.833 149.118 140.255 148.502 139.85 147.706C139.446 146.905 139.243 145.963 139.243 144.879C139.243 143.813 139.446 142.877 139.85 142.072C140.26 141.262 140.831 140.633 141.564 140.183C142.297 139.729 143.159 139.501 144.148 139.501C144.787 139.501 145.39 139.605 145.957 139.812C146.528 140.014 147.032 140.329 147.468 140.756C147.909 141.184 148.255 141.728 148.507 142.389C148.759 143.046 148.885 143.829 148.885 144.737V145.486H140.39V143.84H146.544C146.539 143.372 146.438 142.956 146.24 142.592C146.042 142.223 145.766 141.933 145.41 141.721C145.059 141.51 144.65 141.404 144.182 141.404C143.683 141.404 143.244 141.526 142.866 141.768C142.489 142.007 142.194 142.322 141.983 142.713C141.776 143.1 141.67 143.525 141.665 143.988V145.425C141.665 146.028 141.776 146.545 141.996 146.977C142.217 147.405 142.525 147.733 142.92 147.962C143.316 148.187 143.78 148.3 144.31 148.3C144.666 148.3 144.987 148.25 145.275 148.151C145.563 148.048 145.813 147.897 146.024 147.699C146.236 147.501 146.395 147.256 146.503 146.964L148.784 147.22C148.64 147.823 148.365 148.349 147.961 148.799C147.56 149.244 147.047 149.591 146.422 149.838C145.797 150.081 145.082 150.202 144.277 150.202ZM155.472 150.202C154.437 150.202 153.549 149.975 152.807 149.521C152.069 149.067 151.5 148.439 151.1 147.638C150.704 146.833 150.506 145.907 150.506 144.859C150.506 143.806 150.708 142.877 151.113 142.072C151.518 141.262 152.089 140.633 152.827 140.183C153.569 139.729 154.446 139.501 155.458 139.501C156.3 139.501 157.044 139.657 157.692 139.967C158.344 140.273 158.863 140.707 159.25 141.269C159.637 141.827 159.858 142.479 159.911 143.226H157.577C157.483 142.727 157.258 142.31 156.902 141.978C156.551 141.64 156.081 141.472 155.492 141.472C154.993 141.472 154.554 141.607 154.176 141.876C153.799 142.142 153.504 142.524 153.293 143.023C153.086 143.523 152.982 144.121 152.982 144.818C152.982 145.524 153.086 146.132 153.293 146.64C153.499 147.144 153.79 147.533 154.163 147.807C154.541 148.077 154.984 148.212 155.492 148.212C155.852 148.212 156.174 148.145 156.457 148.01C156.745 147.87 156.985 147.67 157.179 147.409C157.372 147.148 157.505 146.831 157.577 146.458H159.911C159.853 147.191 159.637 147.841 159.264 148.408C158.89 148.97 158.382 149.411 157.739 149.73C157.096 150.045 156.34 150.202 155.472 150.202ZM161.917 150V139.636H164.36V150H161.917ZM163.145 138.165C162.758 138.165 162.425 138.037 162.146 137.781C161.868 137.52 161.728 137.207 161.728 136.843C161.728 136.474 161.868 136.162 162.146 135.905C162.425 135.644 162.758 135.514 163.145 135.514C163.536 135.514 163.869 135.644 164.144 135.905C164.423 136.162 164.562 136.474 164.562 136.843C164.562 137.207 164.423 137.52 164.144 137.781C163.869 138.037 163.536 138.165 163.145 138.165ZM169.853 150.209C169.197 150.209 168.605 150.092 168.079 149.858C167.557 149.62 167.143 149.269 166.837 148.806C166.536 148.342 166.385 147.771 166.385 147.092C166.385 146.507 166.493 146.024 166.709 145.641C166.925 145.259 167.22 144.953 167.593 144.724C167.966 144.494 168.387 144.321 168.855 144.204C169.327 144.083 169.815 143.995 170.319 143.941C170.926 143.878 171.419 143.822 171.797 143.772C172.174 143.718 172.449 143.637 172.62 143.529C172.795 143.417 172.883 143.244 172.883 143.01V142.969C172.883 142.461 172.732 142.068 172.431 141.789C172.129 141.51 171.695 141.37 171.129 141.37C170.53 141.37 170.056 141.501 169.705 141.762C169.359 142.023 169.125 142.331 169.003 142.686L166.723 142.362C166.903 141.732 167.2 141.206 167.613 140.783C168.027 140.356 168.533 140.037 169.131 139.825C169.73 139.609 170.391 139.501 171.115 139.501C171.614 139.501 172.111 139.56 172.606 139.677C173.101 139.794 173.553 139.987 173.962 140.257C174.372 140.522 174.7 140.885 174.948 141.343C175.199 141.802 175.325 142.376 175.325 143.064V150H172.977V148.576H172.896C172.748 148.864 172.539 149.134 172.269 149.386C172.004 149.633 171.668 149.834 171.264 149.987C170.863 150.135 170.393 150.209 169.853 150.209ZM170.488 148.414C170.978 148.414 171.403 148.318 171.763 148.124C172.123 147.926 172.399 147.665 172.593 147.342C172.791 147.018 172.89 146.665 172.89 146.282V145.061C172.813 145.124 172.683 145.183 172.498 145.237C172.318 145.29 172.116 145.338 171.891 145.378C171.666 145.419 171.444 145.455 171.223 145.486C171.003 145.518 170.812 145.545 170.65 145.567C170.285 145.617 169.959 145.698 169.671 145.81C169.383 145.922 169.156 146.08 168.99 146.282C168.823 146.48 168.74 146.737 168.74 147.051C168.74 147.501 168.904 147.841 169.233 148.07C169.561 148.3 169.979 148.414 170.488 148.414ZM177.781 150V139.636H180.224V150H177.781ZM179.009 138.165C178.622 138.165 178.29 138.037 178.011 137.781C177.732 137.52 177.592 137.207 177.592 136.843C177.592 136.474 177.732 136.162 178.011 135.905C178.29 135.644 178.622 135.514 179.009 135.514C179.401 135.514 179.734 135.644 180.008 135.905C180.287 136.162 180.426 136.474 180.426 136.843C180.426 137.207 180.287 137.52 180.008 137.781C179.734 138.037 179.401 138.165 179.009 138.165ZM190.926 142.376L188.7 142.619C188.637 142.394 188.527 142.182 188.369 141.984C188.216 141.786 188.009 141.627 187.749 141.505C187.488 141.384 187.168 141.323 186.79 141.323C186.282 141.323 185.855 141.433 185.509 141.654C185.167 141.874 184.998 142.16 185.002 142.511C184.998 142.812 185.108 143.057 185.333 143.246C185.563 143.435 185.94 143.59 186.467 143.712L188.234 144.089C189.215 144.301 189.944 144.636 190.42 145.095C190.902 145.554 191.145 146.154 191.149 146.896C191.145 147.549 190.953 148.124 190.576 148.624C190.202 149.118 189.683 149.505 189.017 149.784C188.351 150.063 187.587 150.202 186.723 150.202C185.455 150.202 184.433 149.937 183.66 149.406C182.886 148.871 182.425 148.127 182.277 147.173L184.658 146.944C184.766 147.411 184.996 147.764 185.347 148.003C185.697 148.241 186.154 148.36 186.716 148.36C187.297 148.36 187.762 148.241 188.113 148.003C188.468 147.764 188.646 147.47 188.646 147.119C188.646 146.822 188.531 146.577 188.302 146.384C188.077 146.19 187.726 146.042 187.249 145.938L185.482 145.567C184.487 145.36 183.752 145.012 183.275 144.521C182.798 144.027 182.562 143.401 182.567 142.646C182.562 142.007 182.735 141.454 183.086 140.986C183.442 140.513 183.934 140.149 184.564 139.893C185.198 139.632 185.929 139.501 186.757 139.501C187.971 139.501 188.927 139.76 189.624 140.277C190.326 140.795 190.76 141.494 190.926 142.376ZM201.722 150.182C200.908 150.182 200.179 149.973 199.536 149.555C198.893 149.136 198.384 148.529 198.011 147.733C197.638 146.937 197.451 145.97 197.451 144.832C197.451 143.68 197.64 142.709 198.018 141.917C198.4 141.121 198.915 140.52 199.563 140.115C200.211 139.706 200.933 139.501 201.729 139.501C202.336 139.501 202.835 139.605 203.227 139.812C203.618 140.014 203.928 140.259 204.158 140.547C204.387 140.831 204.565 141.098 204.691 141.35H204.792V136.182H207.241V150H204.839V148.367H204.691C204.565 148.619 204.383 148.887 204.144 149.17C203.906 149.449 203.591 149.687 203.2 149.885C202.808 150.083 202.316 150.182 201.722 150.182ZM202.403 148.178C202.921 148.178 203.362 148.039 203.726 147.76C204.09 147.477 204.367 147.083 204.556 146.579C204.745 146.075 204.839 145.488 204.839 144.818C204.839 144.148 204.745 143.565 204.556 143.071C204.371 142.576 204.097 142.191 203.733 141.917C203.373 141.643 202.93 141.505 202.403 141.505C201.859 141.505 201.405 141.647 201.04 141.93C200.676 142.214 200.402 142.605 200.217 143.104C200.033 143.604 199.941 144.175 199.941 144.818C199.941 145.466 200.033 146.044 200.217 146.552C200.406 147.056 200.683 147.454 201.047 147.746C201.416 148.034 201.868 148.178 202.403 148.178ZM214.432 150.202C213.393 150.202 212.495 149.987 211.74 149.555C210.989 149.118 210.411 148.502 210.006 147.706C209.601 146.905 209.399 145.963 209.399 144.879C209.399 143.813 209.601 142.877 210.006 142.072C210.415 141.262 210.986 140.633 211.72 140.183C212.453 139.729 213.314 139.501 214.304 139.501C214.942 139.501 215.545 139.605 216.112 139.812C216.683 140.014 217.187 140.329 217.623 140.756C218.064 141.184 218.41 141.728 218.662 142.389C218.914 143.046 219.04 143.829 219.04 144.737V145.486H210.546V143.84H216.699C216.694 143.372 216.593 142.956 216.395 142.592C216.197 142.223 215.921 141.933 215.565 141.721C215.215 141.51 214.805 141.404 214.337 141.404C213.838 141.404 213.4 141.526 213.022 141.768C212.644 142.007 212.349 142.322 212.138 142.713C211.931 143.1 211.825 143.525 211.821 143.988V145.425C211.821 146.028 211.931 146.545 212.151 146.977C212.372 147.405 212.68 147.733 213.076 147.962C213.472 148.187 213.935 148.3 214.466 148.3C214.821 148.3 215.143 148.25 215.43 148.151C215.718 148.048 215.968 147.897 216.179 147.699C216.391 147.501 216.551 147.256 216.658 146.964L218.939 147.22C218.795 147.823 218.521 148.349 218.116 148.799C217.716 149.244 217.203 149.591 216.578 149.838C215.952 150.081 215.237 150.202 214.432 150.202ZM225.927 150V136.182H231.109C232.171 136.182 233.061 136.366 233.781 136.735C234.505 137.104 235.052 137.621 235.421 138.287C235.794 138.948 235.981 139.72 235.981 140.601C235.981 141.487 235.792 142.257 235.414 142.909C235.041 143.556 234.49 144.058 233.761 144.413C233.032 144.764 232.137 144.94 231.075 144.94H227.385V142.862H230.738C231.359 142.862 231.867 142.776 232.263 142.605C232.659 142.43 232.951 142.176 233.14 141.843C233.334 141.505 233.43 141.092 233.43 140.601C233.43 140.111 233.334 139.693 233.14 139.346C232.947 138.995 232.652 138.73 232.256 138.55C231.86 138.366 231.35 138.273 230.725 138.273H228.431V150H225.927ZM233.066 143.739L236.487 150H233.693L230.333 143.739H233.066ZM242.616 150.202C241.577 150.202 240.68 149.987 239.924 149.555C239.173 149.118 238.595 148.502 238.19 147.706C237.786 146.905 237.583 145.963 237.583 144.879C237.583 143.813 237.786 142.877 238.19 142.072C238.6 141.262 239.171 140.633 239.904 140.183C240.637 139.729 241.499 139.501 242.488 139.501C243.127 139.501 243.73 139.605 244.297 139.812C244.868 140.014 245.372 140.329 245.808 140.756C246.249 141.184 246.595 141.728 246.847 142.389C247.099 143.046 247.225 143.829 247.225 144.737V145.486H238.73V143.84H244.884C244.879 143.372 244.778 142.956 244.58 142.592C244.382 142.223 244.105 141.933 243.75 141.721C243.399 141.51 242.99 141.404 242.522 141.404C242.023 141.404 241.584 141.526 241.206 141.768C240.828 142.007 240.534 142.322 240.322 142.713C240.116 143.1 240.01 143.525 240.005 143.988V145.425C240.005 146.028 240.116 146.545 240.336 146.977C240.556 147.405 240.864 147.733 241.26 147.962C241.656 148.187 242.119 148.3 242.65 148.3C243.006 148.3 243.327 148.25 243.615 148.151C243.903 148.048 244.153 147.897 244.364 147.699C244.575 147.501 244.735 147.256 244.843 146.964L247.124 147.22C246.98 147.823 246.705 148.349 246.3 148.799C245.9 149.244 245.387 149.591 244.762 149.838C244.137 150.081 243.422 150.202 242.616 150.202ZM253.798 154.102C252.921 154.102 252.168 153.983 251.538 153.745C250.908 153.511 250.402 153.196 250.02 152.8C249.637 152.404 249.372 151.966 249.224 151.484L251.423 150.951C251.522 151.154 251.666 151.354 251.855 151.552C252.044 151.754 252.298 151.921 252.617 152.051C252.941 152.186 253.348 152.254 253.839 152.254C254.531 152.254 255.105 152.085 255.559 151.748C256.014 151.415 256.241 150.866 256.241 150.101V148.138H256.119C255.993 148.39 255.809 148.648 255.566 148.914C255.328 149.179 255.01 149.402 254.615 149.582C254.223 149.762 253.731 149.852 253.137 149.852C252.341 149.852 251.619 149.665 250.971 149.292C250.328 148.914 249.815 148.351 249.433 147.605C249.055 146.854 248.866 145.913 248.866 144.784C248.866 143.646 249.055 142.686 249.433 141.903C249.815 141.116 250.33 140.52 250.978 140.115C251.626 139.706 252.348 139.501 253.144 139.501C253.751 139.501 254.25 139.605 254.642 139.812C255.037 140.014 255.352 140.259 255.586 140.547C255.82 140.831 255.998 141.098 256.119 141.35H256.254V139.636H258.663V150.169C258.663 151.055 258.451 151.788 258.029 152.368C257.606 152.949 257.028 153.383 256.295 153.67C255.561 153.958 254.729 154.102 253.798 154.102ZM253.818 147.935C254.336 147.935 254.777 147.809 255.141 147.558C255.505 147.306 255.782 146.944 255.971 146.471C256.16 145.999 256.254 145.432 256.254 144.771C256.254 144.119 256.16 143.547 255.971 143.057C255.786 142.567 255.512 142.187 255.148 141.917C254.788 141.643 254.345 141.505 253.818 141.505C253.274 141.505 252.82 141.647 252.456 141.93C252.091 142.214 251.817 142.603 251.632 143.098C251.448 143.588 251.356 144.146 251.356 144.771C251.356 145.405 251.448 145.961 251.632 146.438C251.821 146.91 252.098 147.279 252.462 147.544C252.831 147.805 253.283 147.935 253.818 147.935ZM267.772 145.641V139.636H270.214V150H267.846V148.158H267.738C267.504 148.738 267.119 149.213 266.584 149.582C266.053 149.951 265.399 150.135 264.621 150.135C263.941 150.135 263.341 149.984 262.819 149.683C262.302 149.377 261.897 148.934 261.605 148.354C261.312 147.769 261.166 147.063 261.166 146.235V139.636H263.609V145.857C263.609 146.514 263.789 147.036 264.148 147.423C264.508 147.809 264.98 148.003 265.565 148.003C265.925 148.003 266.274 147.915 266.611 147.74C266.948 147.564 267.225 147.303 267.441 146.957C267.661 146.606 267.772 146.168 267.772 145.641ZM275.168 136.182V150H272.726V136.182H275.168ZM280.662 150.209C280.005 150.209 279.414 150.092 278.888 149.858C278.366 149.62 277.952 149.269 277.646 148.806C277.345 148.342 277.194 147.771 277.194 147.092C277.194 146.507 277.302 146.024 277.518 145.641C277.734 145.259 278.028 144.953 278.402 144.724C278.775 144.494 279.196 144.321 279.663 144.204C280.136 144.083 280.624 143.995 281.128 143.941C281.735 143.878 282.227 143.822 282.605 143.772C282.983 143.718 283.257 143.637 283.428 143.529C283.604 143.417 283.691 143.244 283.691 143.01V142.969C283.691 142.461 283.541 142.068 283.239 141.789C282.938 141.51 282.504 141.37 281.937 141.37C281.339 141.37 280.864 141.501 280.514 141.762C280.167 142.023 279.933 142.331 279.812 142.686L277.531 142.362C277.711 141.732 278.008 141.206 278.422 140.783C278.836 140.356 279.342 140.037 279.94 139.825C280.538 139.609 281.2 139.501 281.924 139.501C282.423 139.501 282.92 139.56 283.415 139.677C283.91 139.794 284.362 139.987 284.771 140.257C285.18 140.522 285.509 140.885 285.756 141.343C286.008 141.802 286.134 142.376 286.134 143.064V150H283.786V148.576H283.705C283.557 148.864 283.347 149.134 283.078 149.386C282.812 149.633 282.477 149.834 282.072 149.987C281.672 150.135 281.202 150.209 280.662 150.209ZM281.296 148.414C281.787 148.414 282.212 148.318 282.571 148.124C282.931 147.926 283.208 147.665 283.401 147.342C283.599 147.018 283.698 146.665 283.698 146.282V145.061C283.622 145.124 283.491 145.183 283.307 145.237C283.127 145.29 282.925 145.338 282.7 145.378C282.475 145.419 282.252 145.455 282.032 145.486C281.811 145.518 281.62 145.545 281.458 145.567C281.094 145.617 280.768 145.698 280.48 145.81C280.192 145.922 279.965 146.08 279.798 146.282C279.632 146.48 279.549 146.737 279.549 147.051C279.549 147.501 279.713 147.841 280.041 148.07C280.37 148.3 280.788 148.414 281.296 148.414ZM288.59 150V139.636H290.958V141.364H291.066C291.255 140.765 291.579 140.304 292.038 139.98C292.501 139.652 293.03 139.488 293.623 139.488C293.758 139.488 293.909 139.495 294.075 139.508C294.246 139.517 294.388 139.533 294.5 139.555V141.802C294.397 141.766 294.233 141.735 294.008 141.708C293.787 141.676 293.574 141.661 293.367 141.661C292.922 141.661 292.521 141.757 292.166 141.951C291.815 142.14 291.538 142.403 291.336 142.74C291.134 143.077 291.032 143.467 291.032 143.907V150H288.59ZM296.123 150V139.636H298.566V150H296.123ZM297.351 138.165C296.964 138.165 296.631 138.037 296.353 137.781C296.074 137.52 295.934 137.207 295.934 136.843C295.934 136.474 296.074 136.162 296.353 135.905C296.631 135.644 296.964 135.514 297.351 135.514C297.742 135.514 298.075 135.644 298.35 135.905C298.629 136.162 298.768 136.474 298.768 136.843C298.768 137.207 298.629 137.52 298.35 137.781C298.075 138.037 297.742 138.165 297.351 138.165ZM300.942 150V148.448L306.286 141.748V141.661H301.118V139.636H309.275V141.303L304.188 147.888V147.976H309.45V150H300.942ZM314.728 150.209C314.072 150.209 313.48 150.092 312.954 149.858C312.432 149.62 312.018 149.269 311.712 148.806C311.411 148.342 311.26 147.771 311.26 147.092C311.26 146.507 311.368 146.024 311.584 145.641C311.8 145.259 312.095 144.953 312.468 144.724C312.841 144.494 313.262 144.321 313.73 144.204C314.202 144.083 314.69 143.995 315.194 143.941C315.801 143.878 316.294 143.822 316.672 143.772C317.049 143.718 317.324 143.637 317.495 143.529C317.67 143.417 317.758 143.244 317.758 143.01V142.969C317.758 142.461 317.607 142.068 317.306 141.789C317.004 141.51 316.57 141.37 316.004 141.37C315.405 141.37 314.931 141.501 314.58 141.762C314.234 142.023 314 142.331 313.878 142.686L311.598 142.362C311.778 141.732 312.075 141.206 312.488 140.783C312.902 140.356 313.408 140.037 314.006 139.825C314.605 139.609 315.266 139.501 315.99 139.501C316.489 139.501 316.986 139.56 317.481 139.677C317.976 139.794 318.428 139.987 318.837 140.257C319.247 140.522 319.575 140.885 319.823 141.343C320.074 141.802 320.2 142.376 320.2 143.064V150H317.852V148.576H317.771C317.623 148.864 317.414 149.134 317.144 149.386C316.879 149.633 316.543 149.834 316.139 149.987C315.738 150.135 315.268 150.209 314.728 150.209ZM315.363 148.414C315.853 148.414 316.278 148.318 316.638 148.124C316.998 147.926 317.274 147.665 317.468 147.342C317.666 147.018 317.765 146.665 317.765 146.282V145.061C317.688 145.124 317.558 145.183 317.373 145.237C317.193 145.29 316.991 145.338 316.766 145.378C316.541 145.419 316.319 145.455 316.098 145.486C315.878 145.518 315.687 145.545 315.525 145.567C315.16 145.617 314.834 145.698 314.546 145.81C314.258 145.922 314.031 146.08 313.865 146.282C313.698 146.48 313.615 146.737 313.615 147.051C313.615 147.501 313.779 147.841 314.108 148.07C314.436 148.3 314.854 148.414 315.363 148.414ZM327.177 150.202C326.142 150.202 325.254 149.975 324.512 149.521C323.774 149.067 323.205 148.439 322.805 147.638C322.409 146.833 322.211 145.907 322.211 144.859C322.211 143.806 322.413 142.877 322.818 142.072C323.223 141.262 323.794 140.633 324.532 140.183C325.274 139.729 326.151 139.501 327.163 139.501C328.005 139.501 328.749 139.657 329.397 139.967C330.049 140.273 330.569 140.707 330.955 141.269C331.342 141.827 331.563 142.479 331.617 143.226H329.282C329.188 142.727 328.963 142.31 328.607 141.978C328.256 141.64 327.786 141.472 327.197 141.472C326.698 141.472 326.259 141.607 325.881 141.876C325.504 142.142 325.209 142.524 324.998 143.023C324.791 143.523 324.687 144.121 324.687 144.818C324.687 145.524 324.791 146.132 324.998 146.64C325.205 147.144 325.495 147.533 325.868 147.807C326.246 148.077 326.689 148.212 327.197 148.212C327.557 148.212 327.879 148.145 328.162 148.01C328.45 147.87 328.691 147.67 328.884 147.409C329.077 147.148 329.21 146.831 329.282 146.458H331.617C331.558 147.191 331.342 147.841 330.969 148.408C330.595 148.97 330.087 149.411 329.444 149.73C328.801 150.045 328.045 150.202 327.177 150.202ZM326.475 149.946H327.798L327.69 150.52C328.113 150.583 328.47 150.744 328.763 151.005C329.059 151.271 329.208 151.651 329.208 152.146C329.212 152.784 328.927 153.297 328.351 153.684C327.775 154.071 326.954 154.264 325.888 154.264L325.861 153.063C326.379 153.063 326.79 152.993 327.096 152.854C327.402 152.719 327.557 152.503 327.562 152.206C327.571 151.918 327.463 151.707 327.238 151.572C327.017 151.442 326.666 151.352 326.185 151.302L326.475 149.946ZM336.604 150.209C335.948 150.209 335.356 150.092 334.83 149.858C334.308 149.62 333.894 149.269 333.588 148.806C333.287 148.342 333.136 147.771 333.136 147.092C333.136 146.507 333.244 146.024 333.46 145.641C333.676 145.259 333.971 144.953 334.344 144.724C334.717 144.494 335.138 144.321 335.606 144.204C336.078 144.083 336.566 143.995 337.07 143.941C337.677 143.878 338.17 143.822 338.548 143.772C338.925 143.718 339.2 143.637 339.371 143.529C339.546 143.417 339.634 143.244 339.634 143.01V142.969C339.634 142.461 339.483 142.068 339.182 141.789C338.88 141.51 338.446 141.37 337.88 141.37C337.281 141.37 336.807 141.501 336.456 141.762C336.11 142.023 335.876 142.331 335.754 142.686L333.474 142.362C333.654 141.732 333.951 141.206 334.364 140.783C334.778 140.356 335.284 140.037 335.882 139.825C336.481 139.609 337.142 139.501 337.866 139.501C338.365 139.501 338.862 139.56 339.357 139.677C339.852 139.794 340.304 139.987 340.713 140.257C341.123 140.522 341.451 140.885 341.699 141.343C341.95 141.802 342.076 142.376 342.076 143.064V150H339.728V148.576H339.647C339.499 148.864 339.29 149.134 339.02 149.386C338.754 149.633 338.419 149.834 338.015 149.987C337.614 150.135 337.144 150.209 336.604 150.209ZM337.239 148.414C337.729 148.414 338.154 148.318 338.514 148.124C338.874 147.926 339.15 147.665 339.344 147.342C339.542 147.018 339.641 146.665 339.641 146.282V145.061C339.564 145.124 339.434 145.183 339.249 145.237C339.069 145.29 338.867 145.338 338.642 145.378C338.417 145.419 338.194 145.455 337.974 145.486C337.754 145.518 337.563 145.545 337.401 145.567C337.036 145.617 336.71 145.698 336.422 145.81C336.134 145.922 335.907 146.08 335.741 146.282C335.574 146.48 335.491 146.737 335.491 147.051C335.491 147.501 335.655 147.841 335.984 148.07C336.312 148.3 336.73 148.414 337.239 148.414ZM335.99 138.375L334.513 138.341C334.513 137.54 334.72 136.913 335.134 136.458C335.547 136.004 336.058 135.777 336.665 135.777C336.958 135.777 337.212 135.826 337.428 135.925C337.643 136.02 337.841 136.13 338.021 136.256C338.206 136.382 338.386 136.494 338.561 136.593C338.737 136.688 338.93 136.735 339.141 136.735C339.398 136.735 339.6 136.638 339.749 136.445C339.902 136.252 339.98 136.004 339.985 135.703L341.435 135.763C341.431 136.569 341.222 137.194 340.808 137.639C340.394 138.08 339.886 138.303 339.283 138.307C338.959 138.312 338.687 138.264 338.467 138.165C338.246 138.067 338.053 137.954 337.886 137.828C337.724 137.702 337.56 137.592 337.394 137.498C337.227 137.399 337.032 137.349 336.807 137.349C336.568 137.349 336.373 137.444 336.22 137.632C336.067 137.821 335.99 138.069 335.99 138.375ZM349.053 150.202C348.041 150.202 347.164 149.98 346.422 149.534C345.679 149.089 345.104 148.466 344.694 147.665C344.289 146.865 344.087 145.929 344.087 144.859C344.087 143.788 344.289 142.85 344.694 142.045C345.104 141.24 345.679 140.615 346.422 140.169C347.164 139.724 348.041 139.501 349.053 139.501C350.065 139.501 350.942 139.724 351.684 140.169C352.426 140.615 353 141.24 353.405 142.045C353.814 142.85 354.019 143.788 354.019 144.859C354.019 145.929 353.814 146.865 353.405 147.665C353 148.466 352.426 149.089 351.684 149.534C350.942 149.98 350.065 150.202 349.053 150.202ZM349.066 148.246C349.615 148.246 350.074 148.095 350.443 147.794C350.812 147.488 351.086 147.078 351.266 146.566C351.45 146.053 351.543 145.482 351.543 144.852C351.543 144.218 351.45 143.644 351.266 143.131C351.086 142.614 350.812 142.203 350.443 141.897C350.074 141.591 349.615 141.438 349.066 141.438C348.504 141.438 348.036 141.591 347.663 141.897C347.294 142.203 347.018 142.614 346.833 143.131C346.653 143.644 346.563 144.218 346.563 144.852C346.563 145.482 346.653 146.053 346.833 146.566C347.018 147.078 347.294 147.488 347.663 147.794C348.036 148.095 348.504 148.246 349.066 148.246ZM364.651 150.182C363.836 150.182 363.108 149.973 362.465 149.555C361.821 149.136 361.313 148.529 360.94 147.733C360.566 146.937 360.38 145.97 360.38 144.832C360.38 143.68 360.569 142.709 360.946 141.917C361.329 141.121 361.844 140.52 362.492 140.115C363.139 139.706 363.861 139.501 364.657 139.501C365.265 139.501 365.764 139.605 366.155 139.812C366.547 140.014 366.857 140.259 367.086 140.547C367.316 140.831 367.493 141.098 367.619 141.35H367.721V136.182H370.17V150H367.768V148.367H367.619C367.493 148.619 367.311 148.887 367.073 149.17C366.834 149.449 366.52 149.687 366.128 149.885C365.737 150.083 365.244 150.182 364.651 150.182ZM365.332 148.178C365.849 148.178 366.29 148.039 366.655 147.76C367.019 147.477 367.296 147.083 367.484 146.579C367.673 146.075 367.768 145.488 367.768 144.818C367.768 144.148 367.673 143.565 367.484 143.071C367.3 142.576 367.026 142.191 366.661 141.917C366.301 141.643 365.858 141.505 365.332 141.505C364.788 141.505 364.334 141.647 363.969 141.93C363.605 142.214 363.33 142.605 363.146 143.104C362.962 143.604 362.869 144.175 362.869 144.818C362.869 145.466 362.962 146.044 363.146 146.552C363.335 147.056 363.612 147.454 363.976 147.746C364.345 148.034 364.797 148.178 365.332 148.178ZM377.361 150.202C376.322 150.202 375.424 149.987 374.669 149.555C373.917 149.118 373.339 148.502 372.934 147.706C372.53 146.905 372.327 145.963 372.327 144.879C372.327 143.813 372.53 142.877 372.934 142.072C373.344 141.262 373.915 140.633 374.648 140.183C375.381 139.729 376.243 139.501 377.232 139.501C377.871 139.501 378.474 139.605 379.041 139.812C379.612 140.014 380.116 140.329 380.552 140.756C380.993 141.184 381.339 141.728 381.591 142.389C381.843 143.046 381.969 143.829 381.969 144.737V145.486H373.474V143.84H379.628C379.623 143.372 379.522 142.956 379.324 142.592C379.126 142.223 378.849 141.933 378.494 141.721C378.143 141.51 377.734 141.404 377.266 141.404C376.767 141.404 376.328 141.526 375.95 141.768C375.573 142.007 375.278 142.322 375.067 142.713C374.86 143.1 374.754 143.525 374.749 143.988V145.425C374.749 146.028 374.86 146.545 375.08 146.977C375.3 147.405 375.609 147.733 376.004 147.962C376.4 148.187 376.864 148.3 377.394 148.3C377.75 148.3 378.071 148.25 378.359 148.151C378.647 148.048 378.897 147.897 379.108 147.699C379.32 147.501 379.479 147.256 379.587 146.964L381.868 147.22C381.724 147.823 381.449 148.349 381.045 148.799C380.644 149.244 380.131 149.591 379.506 149.838C378.881 150.081 378.166 150.202 377.361 150.202ZM393.539 150H388.856V136.182H393.633C395.005 136.182 396.184 136.458 397.169 137.012C398.158 137.56 398.918 138.35 399.449 139.38C399.98 140.41 400.245 141.643 400.245 143.077C400.245 144.517 399.978 145.754 399.442 146.788C398.912 147.823 398.145 148.617 397.142 149.17C396.143 149.723 394.942 150 393.539 150ZM391.359 147.834H393.417C394.38 147.834 395.183 147.659 395.826 147.308C396.469 146.953 396.953 146.424 397.277 145.722C397.6 145.016 397.762 144.134 397.762 143.077C397.762 142.02 397.6 141.143 397.277 140.446C396.953 139.744 396.474 139.22 395.839 138.874C395.21 138.523 394.427 138.348 393.491 138.348H391.359V147.834ZM407.104 150.202C406.065 150.202 405.167 149.987 404.412 149.555C403.66 149.118 403.082 148.502 402.678 147.706C402.273 146.905 402.07 145.963 402.07 144.879C402.07 143.813 402.273 142.877 402.678 142.072C403.087 141.262 403.658 140.633 404.391 140.183C405.125 139.729 405.986 139.501 406.976 139.501C407.614 139.501 408.217 139.605 408.784 139.812C409.355 140.014 409.859 140.329 410.295 140.756C410.736 141.184 411.082 141.728 411.334 142.389C411.586 143.046 411.712 143.829 411.712 144.737V145.486H403.217V143.84H409.371C409.366 143.372 409.265 142.956 409.067 142.592C408.869 142.223 408.593 141.933 408.237 141.721C407.886 141.51 407.477 141.404 407.009 141.404C406.51 141.404 406.071 141.526 405.694 141.768C405.316 142.007 405.021 142.322 404.81 142.713C404.603 143.1 404.497 143.525 404.493 143.988V145.425C404.493 146.028 404.603 146.545 404.823 146.977C405.044 147.405 405.352 147.733 405.748 147.962C406.143 148.187 406.607 148.3 407.138 148.3C407.493 148.3 407.814 148.25 408.102 148.151C408.39 148.048 408.64 147.897 408.851 147.699C409.063 147.501 409.222 147.256 409.33 146.964L411.611 147.22C411.467 147.823 411.193 148.349 410.788 148.799C410.387 149.244 409.875 149.591 409.249 149.838C408.624 150.081 407.909 150.202 407.104 150.202ZM405.97 138.273L407.482 135.19H409.87L407.799 138.273H405.97ZM413.886 150V136.182H416.329V141.35H416.43C416.556 141.098 416.734 140.831 416.963 140.547C417.192 140.259 417.503 140.014 417.894 139.812C418.286 139.605 418.785 139.501 419.392 139.501C420.193 139.501 420.915 139.706 421.558 140.115C422.206 140.52 422.718 141.121 423.096 141.917C423.479 142.709 423.67 143.68 423.67 144.832C423.67 145.97 423.483 146.937 423.11 147.733C422.736 148.529 422.228 149.136 421.585 149.555C420.942 149.973 420.213 150.182 419.399 150.182C418.805 150.182 418.313 150.083 417.921 149.885C417.53 149.687 417.215 149.449 416.977 149.17C416.743 148.887 416.56 148.619 416.43 148.367H416.288V150H413.886ZM416.282 144.818C416.282 145.488 416.376 146.075 416.565 146.579C416.758 147.083 417.035 147.477 417.395 147.76C417.759 148.039 418.2 148.178 418.717 148.178C419.257 148.178 419.709 148.034 420.074 147.746C420.438 147.454 420.712 147.056 420.897 146.552C421.086 146.044 421.18 145.466 421.18 144.818C421.18 144.175 421.088 143.604 420.903 143.104C420.719 142.605 420.445 142.214 420.08 141.93C419.716 141.647 419.262 141.505 418.717 141.505C418.196 141.505 417.752 141.643 417.388 141.917C417.024 142.191 416.747 142.576 416.558 143.071C416.374 143.565 416.282 144.148 416.282 144.818ZM425.746 150V139.636H428.189V150H425.746ZM426.974 138.165C426.587 138.165 426.254 138.037 425.976 137.781C425.697 137.52 425.557 137.207 425.557 136.843C425.557 136.474 425.697 136.162 425.976 135.905C426.254 135.644 426.587 135.514 426.974 135.514C427.366 135.514 427.698 135.644 427.973 135.905C428.252 136.162 428.391 136.474 428.391 136.843C428.391 137.207 428.252 137.52 427.973 137.781C427.698 138.037 427.366 138.165 426.974 138.165ZM435.875 139.636V141.526H429.918V139.636H435.875ZM431.388 137.153H433.831V146.883C433.831 147.211 433.88 147.463 433.979 147.638C434.083 147.809 434.218 147.926 434.384 147.989C434.551 148.052 434.735 148.084 434.938 148.084C435.09 148.084 435.23 148.073 435.356 148.05C435.486 148.028 435.585 148.007 435.653 147.989L436.064 149.899C435.934 149.944 435.747 149.993 435.504 150.047C435.266 150.101 434.973 150.133 434.627 150.142C434.015 150.16 433.464 150.067 432.974 149.865C432.484 149.658 432.095 149.339 431.807 148.907C431.523 148.475 431.384 147.935 431.388 147.288V137.153ZM442.327 150.202C441.315 150.202 440.438 149.98 439.696 149.534C438.954 149.089 438.378 148.466 437.969 147.665C437.564 146.865 437.361 145.929 437.361 144.859C437.361 143.788 437.564 142.85 437.969 142.045C438.378 141.24 438.954 140.615 439.696 140.169C440.438 139.724 441.315 139.501 442.327 139.501C443.339 139.501 444.217 139.724 444.959 140.169C445.701 140.615 446.274 141.24 446.679 142.045C447.089 142.85 447.293 143.788 447.293 144.859C447.293 145.929 447.089 146.865 446.679 147.665C446.274 148.466 445.701 149.089 444.959 149.534C444.217 149.98 443.339 150.202 442.327 150.202ZM442.341 148.246C442.89 148.246 443.348 148.095 443.717 147.794C444.086 147.488 444.36 147.078 444.54 146.566C444.725 146.053 444.817 145.482 444.817 144.852C444.817 144.218 444.725 143.644 444.54 143.131C444.36 142.614 444.086 142.203 443.717 141.897C443.348 141.591 442.89 141.438 442.341 141.438C441.779 141.438 441.311 141.591 440.937 141.897C440.569 142.203 440.292 142.614 440.108 143.131C439.928 143.644 439.838 144.218 439.838 144.852C439.838 145.482 439.928 146.053 440.108 146.566C440.292 147.078 440.569 147.488 440.937 147.794C441.311 148.095 441.779 148.246 442.341 148.246ZM457.557 142.376L455.331 142.619C455.268 142.394 455.158 142.182 455 141.984C454.847 141.786 454.64 141.627 454.379 141.505C454.119 141.384 453.799 141.323 453.421 141.323C452.913 141.323 452.486 141.433 452.139 141.654C451.798 141.874 451.629 142.16 451.633 142.511C451.629 142.812 451.739 143.057 451.964 143.246C452.193 143.435 452.571 143.59 453.097 143.712L454.865 144.089C455.846 144.301 456.575 144.636 457.051 145.095C457.533 145.554 457.776 146.154 457.78 146.896C457.776 147.549 457.584 148.124 457.206 148.624C456.833 149.118 456.314 149.505 455.648 149.784C454.982 150.063 454.218 150.202 453.354 150.202C452.085 150.202 451.064 149.937 450.291 149.406C449.517 148.871 449.056 148.127 448.907 147.173L451.289 146.944C451.397 147.411 451.627 147.764 451.977 148.003C452.328 148.241 452.785 148.36 453.347 148.36C453.927 148.36 454.393 148.241 454.744 148.003C455.099 147.764 455.277 147.47 455.277 147.119C455.277 146.822 455.162 146.577 454.933 146.384C454.708 146.19 454.357 146.042 453.88 145.938L452.112 145.567C451.118 145.36 450.383 145.012 449.906 144.521C449.429 144.027 449.193 143.401 449.198 142.646C449.193 142.007 449.366 141.454 449.717 140.986C450.073 140.513 450.565 140.149 451.195 139.893C451.829 139.632 452.56 139.501 453.388 139.501C454.602 139.501 455.558 139.76 456.255 140.277C456.957 140.795 457.391 141.494 457.557 142.376Z" fill="#242424"/>
<path d="M330.579 49.7368V73.076H336.412V108.07H330.579V125.57H423.912L441.412 125.576L447.246 125.57V108.07H441.412V73.076H447.246V49.7368L388.912 14.7368L330.579 49.7368ZM353.912 108.07V73.076H365.579V108.07H353.912ZM383.079 108.07V73.076H394.746V108.07H383.079ZM423.912 108.07H412.246V73.076H423.912V108.07ZM400.579 49.7368C400.578 51.2693 400.276 52.7867 399.689 54.2024C399.103 55.618 398.243 56.9043 397.159 57.9876C396.075 59.071 394.788 59.9302 393.372 60.5163C391.956 61.1024 390.439 61.4039 388.906 61.4035C387.374 61.4031 385.856 61.1009 384.441 60.5141C383.025 59.9273 381.739 59.0674 380.656 57.9835C379.572 56.8996 378.713 55.6129 378.127 54.197C377.541 52.781 377.239 51.2635 377.24 49.731C377.24 46.636 378.471 43.6681 380.66 41.4802C382.849 39.2923 385.817 38.0635 388.912 38.0643C392.007 38.0651 394.975 39.2953 397.163 41.4843C399.351 43.6733 400.58 46.6419 400.579 49.7368Z" fill="#242424"/>
</svg>
